<?xml version="1.0" encoding="UTF-8" standalone="no"?>
<!DOCTYPE svg PUBLIC "-//W3C//DTD SVG 1.1//EN" "http://www.w3.org/Graphics/SVG/1.1/DTD/svg11.dtd">
<svg width="100%" height="100%" viewBox="0 0 446 112" version="1.1" xmlns="http://www.w3.org/2000/svg" xmlns:xlink="http://www.w3.org/1999/xlink" xml:space="preserve" xmlns:serif="http://www.serif.com/" style="fill-rule:evenodd;clip-rule:evenodd;stroke-linejoin:round;stroke-miterlimit:2;">
    <g id="Artboard1" transform="matrix(0.870032,0,0,0.217555,0,0)">
        <rect x="0" y="0" width="512" height="512" style="fill:none;"/>
        <g transform="matrix(1.14938,0,0,4.59655,0.660282,-935.136)">
            <g transform="matrix(1.40169,0,0,1.40169,-1556.53,-1726.67)">
                <path d="M1148.68,1430.42L1163.79,1430.42L1163.79,1403.52L1175.54,1403.52L1175.54,1395.42L1136.93,1395.42L1136.93,1403.52L1148.68,1403.52L1148.68,1430.42Z" style="fill-rule:nonzero;"/>
                <path d="M1203.13,1403.92L1196.63,1420.32L1190.59,1403.92L1175.79,1403.92L1187.54,1430.52L1185.24,1437.92L1198.29,1437.92L1214.38,1403.92L1203.13,1403.92Z" style="fill-rule:nonzero;"/>
                <path d="M1215.63,1437.92L1228.74,1437.92L1228.74,1426.17C1231.68,1429.92 1235.34,1431.42 1239.04,1431.42C1247.54,1431.42 1253.24,1425.62 1253.24,1417.17C1253.24,1408.72 1247.54,1402.92 1239.04,1402.92C1235.34,1402.92 1231.68,1404.42 1228.74,1408.17L1228.74,1403.92L1215.63,1403.92L1215.63,1437.92ZM1228.74,1417.17C1228.74,1412.07 1230.54,1409.67 1233.93,1409.67C1237.34,1409.67 1239.13,1412.07 1239.13,1417.17C1239.13,1422.27 1237.34,1424.67 1233.93,1424.67C1230.54,1424.67 1228.74,1422.27 1228.74,1417.17Z" style="fill-rule:nonzero;"/>
                <path d="M1291.29,1417.62C1291.04,1406.57 1284.24,1402.92 1273.29,1402.92C1261.68,1402.92 1254.74,1408.22 1254.74,1417.17C1254.74,1426.12 1261.68,1431.42 1273.29,1431.42C1283.99,1431.42 1289.74,1427.82 1290.79,1421.82L1277.59,1421.82C1277.34,1424.42 1275.68,1425.67 1273.04,1425.67C1269.99,1425.67 1268.04,1423.82 1268.04,1419.02L1291.29,1419.02L1291.29,1417.62ZM1273.04,1408.67C1275.74,1408.67 1277.43,1410.22 1277.74,1413.52L1268.13,1413.52C1268.63,1410.22 1270.43,1408.67 1273.04,1408.67Z" style="fill-rule:nonzero;"/>
                <path d="M1293.29,1430.42L1303.13,1430.42L1303.13,1410.07L1311.38,1430.42L1322.93,1430.42L1331.38,1410.07L1331.38,1430.42L1345.49,1430.42L1345.49,1395.42L1327.49,1395.42L1319.68,1414.52L1311.99,1395.42L1293.29,1395.42L1293.29,1430.42Z" style="fill-rule:nonzero;"/>
                <path d="M1347.49,1417.17C1347.49,1425.62 1353.18,1431.42 1361.68,1431.42C1365.38,1431.42 1369.04,1429.92 1371.99,1426.17L1371.99,1430.42L1385.09,1430.42L1385.09,1403.92L1371.99,1403.92L1371.99,1408.17C1369.04,1404.42 1365.38,1402.92 1361.68,1402.92C1353.18,1402.92 1347.49,1408.72 1347.49,1417.17ZM1361.59,1417.17C1361.59,1412.07 1363.38,1409.67 1366.79,1409.67C1370.18,1409.67 1371.99,1412.07 1371.99,1417.17C1371.99,1422.27 1370.18,1424.67 1366.79,1424.67C1363.38,1424.67 1361.59,1422.27 1361.59,1417.17Z" style="fill-rule:nonzero;"/>
                <path d="M1387.59,1437.92L1400.68,1437.92L1400.68,1426.17C1403.63,1429.92 1407.29,1431.42 1410.99,1431.42C1419.49,1431.42 1425.18,1425.62 1425.18,1417.17C1425.18,1408.72 1419.49,1402.92 1410.99,1402.92C1407.29,1402.92 1403.63,1404.42 1400.68,1408.17L1400.68,1403.92L1387.59,1403.92L1387.59,1437.92ZM1400.68,1417.17C1400.68,1412.07 1402.49,1409.67 1405.88,1409.67C1409.29,1409.67 1411.09,1412.07 1411.09,1417.17C1411.09,1422.27 1409.29,1424.67 1405.88,1424.67C1402.49,1424.67 1400.68,1422.27 1400.68,1417.17Z" style="fill-rule:nonzero;"/>
            </g>
            <g transform="matrix(0.212463,-0.0963157,0.0963157,0.212463,-229.832,-16.1634)">
                <path d="M1139.14,1568.65C1161.03,1568.65 1182.02,1577.34 1197.5,1592.82C1212.98,1608.3 1221.67,1629.29 1221.67,1651.18L1221.67,1651.18C1221.67,1673.07 1212.98,1694.06 1197.5,1709.54C1182.02,1725.02 1161.03,1733.71 1139.14,1733.71L428.982,1733.71C407.093,1733.71 386.1,1725.02 370.623,1709.54C355.145,1694.06 346.45,1673.07 346.45,1651.18L346.45,1651.18C346.45,1629.29 355.145,1608.3 370.623,1592.82C386.1,1577.34 407.093,1568.65 428.982,1568.65L1139.14,1568.65Z" style="fill:rgb(191,139,255);"/>
            </g>
            <g transform="matrix(0.140261,0.0195223,-0.0321585,0.231048,227.053,-107.457)">
                <path d="M1085.72,1568.65C1121.78,1568.65 1156.36,1577.34 1181.86,1592.82C1207.35,1608.3 1221.67,1629.29 1221.67,1651.18L1221.67,1651.18C1221.67,1673.07 1207.35,1694.06 1181.86,1709.54C1156.36,1725.02 1121.78,1733.71 1085.72,1733.71L482.402,1733.71C446.345,1733.71 411.765,1725.02 386.269,1709.54C360.773,1694.06 346.45,1673.07 346.45,1651.18L346.45,1651.18C346.45,1629.29 360.773,1608.3 386.269,1592.82C411.765,1577.34 446.345,1568.65 482.402,1568.65L1085.72,1568.65Z" style="fill:rgb(139,255,181);"/>
            </g>
            <g transform="matrix(0.439788,-0.199369,0.199369,0.439788,-758.369,-104.75)">
                <path d="M1155.18,1430.42L1165.29,1430.42L1165.29,1425.57L1157.43,1425.57C1153.54,1425.57 1152.74,1424.02 1152.74,1421.47L1152.74,1407.67L1160.74,1407.67L1160.74,1402.82L1152.74,1402.82L1152.74,1394.82L1146.74,1397.82L1146.74,1402.82L1140.59,1402.82L1140.59,1407.67L1146.74,1407.67L1146.74,1421.47C1146.74,1426.87 1149.84,1430.42 1155.18,1430.42Z" style="fill-rule:nonzero;"/>
                <path d="M1182.88,1415.12L1177.74,1402.82L1171.54,1402.82L1182.38,1428.42L1181.68,1430.02C1180.29,1433.32 1178.93,1435.07 1176.29,1435.07L1171.84,1435.07L1171.84,1439.92L1176.79,1439.92C1181.49,1439.92 1184.38,1438.12 1186.74,1432.57L1199.34,1402.82L1193.24,1402.82L1188.04,1415.07L1185.43,1422.07L1182.88,1415.12Z" style="fill-rule:nonzero;"/>
                <path d="M1219.79,1402.22C1216.09,1402.22 1212.99,1403.77 1211.04,1406.22L1210.88,1402.82L1205.18,1402.82L1205.18,1439.32L1211.13,1439.32L1211.13,1427.07C1213.09,1429.52 1216.18,1431.02 1219.79,1431.02C1227.09,1431.02 1232.18,1424.87 1232.18,1416.62C1232.18,1408.32 1227.09,1402.22 1219.79,1402.22ZM1218.38,1426.07C1215.09,1426.07 1212.34,1424.02 1211.13,1420.77L1211.13,1412.42C1212.34,1409.17 1215.09,1407.17 1218.38,1407.17C1223.04,1407.17 1226.18,1411.12 1226.18,1416.62C1226.18,1422.07 1223.04,1426.07 1218.38,1426.07Z" style="fill-rule:nonzero;"/>
                <path d="M1250.43,1431.02C1259.09,1431.02 1264.34,1425.52 1264.34,1416.62C1264.34,1407.67 1259.09,1402.22 1250.43,1402.22C1241.74,1402.22 1236.49,1407.67 1236.49,1416.62C1236.49,1425.52 1241.74,1431.02 1250.43,1431.02ZM1250.43,1426.12C1245.49,1426.12 1242.49,1422.52 1242.49,1416.62C1242.49,1410.67 1245.49,1407.12 1250.43,1407.12C1255.34,1407.12 1258.34,1410.67 1258.34,1416.62C1258.34,1422.52 1255.34,1426.12 1250.43,1426.12Z" style="fill-rule:nonzero;"/>
                <path d="M1290.04,1406.42C1288.29,1403.92 1285.29,1402.27 1281.74,1402.27C1274.63,1402.27 1269.34,1407.32 1269.34,1415.67C1269.34,1423.27 1274.34,1429.02 1281.38,1429.02C1285.04,1429.02 1288.09,1427.47 1289.93,1424.87L1289.93,1427.87C1289.93,1432.42 1287.49,1435.02 1282.63,1435.02C1278.49,1435.02 1276.43,1433.67 1276.09,1431.02L1269.84,1431.02C1270.18,1436.97 1274.84,1439.92 1282.34,1439.92C1291.43,1439.92 1295.88,1435.47 1295.88,1427.17L1295.88,1402.82L1290.18,1402.82L1290.04,1406.42ZM1282.79,1424.42C1278.34,1424.42 1275.29,1420.62 1275.29,1415.57C1275.29,1410.57 1278.34,1406.87 1282.79,1406.87C1286.09,1406.87 1288.84,1409.02 1289.93,1412.37L1289.93,1418.87C1288.84,1422.27 1286.09,1424.42 1282.79,1424.42Z" style="fill-rule:nonzero;"/>
                <path d="M1303.84,1430.42L1309.79,1430.42L1309.79,1413.22C1311.84,1409.12 1314.54,1407.27 1317.68,1407.27C1320.74,1407.27 1322.43,1409.12 1322.43,1411.87L1322.43,1415.32L1328.38,1415.32L1328.38,1411.87C1328.38,1405.67 1324.38,1402.22 1318.74,1402.22C1314.99,1402.22 1311.93,1403.87 1309.74,1407.07L1309.49,1402.82L1303.84,1402.82L1303.84,1430.42Z" style="fill-rule:nonzero;"/>
                <path d="M1344.93,1431.02C1349.18,1431.02 1352.43,1429.52 1354.38,1426.67L1354.54,1430.42L1360.24,1430.42L1360.24,1412.52C1360.24,1405.97 1355.43,1402.22 1347.88,1402.22C1340.49,1402.22 1335.38,1405.77 1334.93,1411.62L1340.74,1411.62C1341.04,1408.47 1343.74,1406.57 1347.68,1406.57C1351.79,1406.57 1354.29,1408.72 1354.29,1412.17L1354.29,1413.87L1348.24,1413.87C1340.43,1413.87 1335.79,1417.17 1335.79,1422.87C1335.79,1427.77 1339.49,1431.02 1344.93,1431.02ZM1341.63,1422.57C1341.63,1419.77 1344.04,1418.22 1348.04,1418.22L1354.29,1418.17L1354.29,1421.37C1352.43,1424.42 1349.68,1426.22 1346.24,1426.22C1343.38,1426.22 1341.63,1424.77 1341.63,1422.57Z" style="fill-rule:nonzero;"/>
                <path d="M1382.29,1402.22C1378.59,1402.22 1375.49,1403.77 1373.54,1406.22L1373.38,1402.82L1367.68,1402.82L1367.68,1439.32L1373.63,1439.32L1373.63,1427.07C1375.59,1429.52 1378.68,1431.02 1382.29,1431.02C1389.59,1431.02 1394.68,1424.87 1394.68,1416.62C1394.68,1408.32 1389.59,1402.22 1382.29,1402.22ZM1380.88,1426.07C1377.59,1426.07 1374.84,1424.02 1373.63,1420.77L1373.63,1412.42C1374.84,1409.17 1377.59,1407.17 1380.88,1407.17C1385.54,1407.17 1388.68,1411.12 1388.68,1416.62C1388.68,1422.07 1385.54,1426.07 1380.88,1426.07Z" style="fill-rule:nonzero;"/>
                <path d="M1400.43,1430.42L1406.38,1430.42L1406.38,1413.87C1408.38,1409.27 1411.09,1407.27 1414.38,1407.27C1417.54,1407.27 1419.68,1409.62 1419.68,1413.22L1419.68,1430.42L1425.63,1430.42L1425.63,1412.87C1425.63,1406.47 1421.74,1402.22 1415.49,1402.22C1411.99,1402.22 1408.68,1403.72 1406.38,1406.87L1406.38,1393.52L1400.43,1393.52L1400.43,1430.42Z" style="fill-rule:nonzero;"/>
                <path d="M1442.88,1415.12L1437.74,1402.82L1431.54,1402.82L1442.38,1428.42L1441.68,1430.02C1440.29,1433.32 1438.93,1435.07 1436.29,1435.07L1431.84,1435.07L1431.84,1439.92L1436.79,1439.92C1441.49,1439.92 1444.38,1438.12 1446.74,1432.57L1459.34,1402.82L1453.24,1402.82L1448.04,1415.07L1445.43,1422.07L1442.88,1415.12Z" style="fill-rule:nonzero;"/>
            </g>
            <g transform="matrix(0.478257,0.0665665,-0.0665665,0.478257,-203.753,-469.208)">
                <path d="M1160.04,1406.42C1158.29,1403.92 1155.29,1402.27 1151.74,1402.27C1144.63,1402.27 1139.34,1407.32 1139.34,1415.67C1139.34,1423.27 1144.34,1429.02 1151.38,1429.02C1155.04,1429.02 1158.09,1427.47 1159.93,1424.87L1159.93,1427.87C1159.93,1432.42 1157.49,1435.02 1152.63,1435.02C1148.49,1435.02 1146.43,1433.67 1146.09,1431.02L1139.84,1431.02C1140.18,1436.97 1144.84,1439.92 1152.34,1439.92C1161.43,1439.92 1165.88,1435.47 1165.88,1427.17L1165.88,1402.82L1160.18,1402.82L1160.04,1406.42ZM1152.79,1424.42C1148.34,1424.42 1145.29,1420.62 1145.29,1415.57C1145.29,1410.57 1148.34,1406.87 1152.79,1406.87C1156.09,1406.87 1158.84,1409.02 1159.93,1412.37L1159.93,1418.87C1158.84,1422.27 1156.09,1424.42 1152.79,1424.42Z" style="fill-rule:nonzero;"/>
                <path d="M1178.34,1402.82L1172.38,1402.82L1172.38,1420.42C1172.38,1426.77 1176.29,1431.02 1182.59,1431.02C1186.09,1431.02 1189.38,1429.47 1191.74,1426.32L1191.88,1430.42L1197.63,1430.42L1197.63,1402.82L1191.63,1402.82L1191.63,1419.37C1189.63,1423.97 1186.93,1425.97 1183.68,1425.97C1180.49,1425.97 1178.34,1423.62 1178.34,1420.07L1178.34,1402.82Z" style="fill-rule:nonzero;"/>
                <path d="M1214.79,1398.47L1221.34,1398.47L1221.34,1392.37L1214.79,1392.37L1214.79,1398.47ZM1205.38,1430.42L1230.43,1430.42L1230.43,1425.57L1221.09,1425.57L1221.09,1402.82L1208.93,1402.82L1208.93,1407.67L1215.13,1407.67L1215.13,1425.57L1205.38,1425.57L1205.38,1430.42Z" style="fill-rule:nonzero;"/>
                <path d="M1248.84,1402.22C1241.54,1402.22 1236.43,1408.32 1236.43,1416.62C1236.43,1424.87 1241.54,1431.02 1248.84,1431.02C1252.49,1431.02 1255.68,1429.42 1257.59,1426.92L1257.74,1430.42L1263.43,1430.42L1263.43,1393.57L1257.49,1393.57L1257.49,1406.12C1255.54,1403.72 1252.43,1402.22 1248.84,1402.22ZM1250.24,1426.07C1245.59,1426.07 1242.38,1422.07 1242.38,1416.62C1242.38,1411.12 1245.59,1407.17 1250.24,1407.17C1253.54,1407.17 1256.29,1409.22 1257.49,1412.52L1257.49,1420.67C1256.29,1423.97 1253.54,1426.07 1250.24,1426.07Z" style="fill-rule:nonzero;"/>
                <path d="M1283.24,1431.02C1290.68,1431.02 1295.74,1427.22 1296.59,1420.97L1290.59,1420.97C1289.99,1424.12 1287.18,1426.12 1283.24,1426.12C1278.04,1426.12 1275.18,1422.27 1275.18,1416.82L1275.18,1416.62L1296.49,1416.62C1297.09,1407.72 1292.63,1402.22 1283.49,1402.22C1274.54,1402.22 1269.24,1407.57 1269.24,1416.57C1269.24,1425.62 1274.54,1431.02 1283.24,1431.02ZM1283.49,1407.02C1287.34,1407.02 1290.13,1409.12 1290.38,1412.32L1275.84,1412.27C1276.93,1408.87 1279.54,1407.02 1283.49,1407.02Z" style="fill-rule:nonzero;"/>
            </g>
        </g>
    </g>
</svg>
